<svg xmlns="http://www.w3.org/2000/svg" viewBox="0 0 2842.33 1222.45"><defs><style>.cls-1{fill:#e76b0f;}.cls-2{fill:#030303;}.cls-3{fill:#020202;}.cls-4{fill:#040404;}</style></defs><title>Recurso 1</title><g id="Capa_2" data-name="Capa 2"><g id="Capa_1-2" data-name="Capa 1"><path class="cls-1" d="M1639.42,841.18A304.63,304.63,0,0,0,1583,835c-44.59-.82-88.79,3.56-132.92,9.46-48.7,6.51-97,15.47-145.05,25.41s-95.88,21.28-143.51,33.27Q1075.83,924.72,991,949.69q-58.72,17.16-117,35.83-68.76,21.92-136.79,46c-35.95,12.7-71.58,26.25-107,40.38-40.52,16.16-81.25,31.79-121.89,47.65q-76.75,29.95-154.24,57.92c-31.92,11.51-63.62,23.8-96.47,32.63-14,3.76-27.85,8.1-42,11a76.11,76.11,0,0,1-29.74-.2,34.88,34.88,0,0,0-6.9-.9c-14,.11-28-.14-42,.59-9.11.48-17.92-.81-26.17-5.09-3.25-1.68-5.86-3.83-7.22-7.25a13.71,13.71,0,0,0-14.16-9.14c-17.14.86-25.64-13.37-26.29-27.21-.46-9.8-1.34-19.7,2.76-29.07,4.62-10.58,11.1-18.68,23.84-20,8.63-.91,13-8,17.47-14.5a69.6,69.6,0,0,1,7.3-9.48c7.39-7.61,17.25-8.44,24.91-1.15,9.33,8.87,19.72,14.61,32.8,14.79,6,.08,12,0,18,.29,14.14.75,27.68-1.61,41.3-5.55,18.88-5.47,38.8-5.91,57.9-10.71,24.07-6,47.93-12.85,71.8-19.61,36.2-10.26,72.31-20.85,108.41-31.44,44.89-13.16,89.71-26.57,134.62-39.66,40.09-11.69,79.72-25,120.58-34,40-8.82,79.88-18.06,119.84-27,31.18-7,62.37-14,93.62-20.62q58.36-12.43,116.84-24.29,54.29-11,108.7-21.54c33-6.33,66.13-12.33,99.24-18.22,50.31-9,100.73-17.32,151.32-24.49,29.49-4.18,59.1-7.56,88.61-11.67a503.94,503.94,0,0,0,52.81-10.71c18.7-4.68,37.74-6.16,56.89-7.19q84.32-4.56,168.63-9.3c12-.66,23.95-1.36,35.93-2,5.39-.27,5.59,0,3.56,5.14-5.65,14.35-16.12,24.69-28.4,33.35-24.54,17.29-52.26,27.67-80.59,36.65-40.07,12.71-81.22,20.84-122.43,28.73-12.07,2.31-24.33,3.89-35.93,8.26a18.74,18.74,0,0,0-1.85.73c-1.47.74-3.4,1.41-3.11,3.38.23,1.58,2.09,2.09,3.49,2.45,8.75,2.25,17.65,3.64,26.7,3,26.25-1.85,52.3-5.43,78.35-9,56.06-7.72,111.95-16.57,167.83-25.46,38.12-6.07,76.11-13,114.27-18.79,24.34-3.71,48.86-6.32,73.34-9.06,54-6,108.1-10.06,162.33-12.75,28.78-1.43,57.62-1.93,86.43-2.72,44.49-1.22,89-.59,133.46.47,50,1.2,99.87,4,149.69,8.06,31.18,2.52,62.33,5.5,93.29,10a94.44,94.44,0,0,1,30.69,10.13c2.69,1.43,5.38,3.38,5.44,6.66.06,3.52-3.16,5-5.85,6.14a69.56,69.56,0,0,1-38.64,5.12c-19-2.94-38.08-3.85-57.16-5.37-20.62-1.64-41.22-2.6-61.89-1.6-41.92,2-83.68,5.88-125.41,10.3q-53.38,5.67-106.63,12.45c-48.2,6.07-96.36,12.47-144.43,19.54-22.73,3.34-45.44,6.72-68.18,10a67.16,67.16,0,0,1-9,.2c-49.83.34-99.55,3.28-149.27,6.17-59.19,3.43-118.33,7.67-177.52,11.11-22.6,1.32-45.29,1.25-67.92,2.12-45.61,1.74-91.14,4.63-136.39,10.94a306.94,306.94,0,0,0-57.6,14.09c-19.59,6.74-39.69,8.11-60,2.58a54.23,54.23,0,0,1-13.36-5.48c-3.7-2.18-7.32-2.49-11.47-1.75-20.2,3.62-39.9,9.22-59.62,14.74-44.24,12.39-88.08,26.15-132.1,39.29-17.95,5.36-34.74,13.36-52.15,19.94-30.48,11.52-62,17.78-94.72,17.24-7.31-.12-14.65-.85-21.57-3.64-8.88-3.57-10.87-10-5.34-17.78,6.86-9.59,16.6-15.81,26.43-21.77,34.63-21,72-36.21,109.76-50.28,45.59-17,92-31.4,138.77-44.69,50.93-14.47,102.23-27.52,153.73-39.77q68-16.18,136.51-30.34c17.6-3.63,35.25-7.05,52.88-10.57A5.29,5.29,0,0,0,1639.42,841.18Z"/><path d="M2272.92,591.19q0-5.15,0-10.28,0-130.25,0-260.5c0-7.43-.6-6.24,6.47-6.26,15.5,0,31,.16,46.5-.11,4.25-.08,5.17,1.19,5.17,5.26q-.17,185.75-.1,371.5c0,9.17-.18,18.34.08,27.5.11,3.66-1.27,4-4.53,4.45-9.89,1.28-16-2.49-22.27-10.53q-93.38-120.73-187.64-240.79c-10.86-13.9-21.69-27.83-32.83-42.13-1.11,2-.67,3.83-.67,5.5q0,138,.11,276c0,5.28-1.49,6.24-6.34,6.14-15.66-.31-31.33-.22-47,0-3.5,0-4.83-.51-4.82-4.51q.18-197,0-394c0-3.62,1.09-4.56,4.51-4.33a78.51,78.51,0,0,0,13,0c5-.49,8.1,1.39,11.23,5.3q87.2,109,174.69,217.86l42.2,52.6C2271.11,590.41,2271.33,591.34,2272.92,591.19Z"/><path d="M650.69,592.34c0-6.32,0-11.27,0-16.23q0-128-.11-256c0-4.63.81-6.25,5.87-6.13,15.66.38,31.33.29,47,0,4.13-.07,5.23,1,5.22,5.18q-.22,91.49-.1,183,0,107.74.07,215.49c0,3.87-.87,4.75-4.84,5.07-8.92.73-14.92-1.61-20.85-9.32-44.65-58.09-90-115.68-135-173.43q-42-53.76-83.91-107.53c-.69-.88-1.47-1.69-3.12-3.59,0,4.7,0,8.24,0,11.77q0,135.24.13,270.49c0,4.51-1,5.87-5.68,5.78-15.83-.32-31.67-.29-47.49,0-4.27.07-5.13-1.25-5.13-5.28q.16-170.24.09-340.48c0-17.33.09-34.67-.07-52,0-3.63.47-5.52,4.77-5.11,6.59.63,14.13-2.08,19.61,1.06,5.26,3,8.5,9.58,12.56,14.63q64.58,80.42,129.14,160.86l79.43,99C648.74,590.18,649.29,590.76,650.69,592.34Z"/><path d="M312,461.08c0,46.15.81,92.33-.21,138.46-1.22,55.62-31.55,95.45-84.22,113.24-35.64,12-72.19,13-109.1,8.47C93,718.1,69,710.67,47.77,695.74,21.23,677,6.68,651,2,619.19A199,199,0,0,1,.1,589.81q.07-135-.1-269.93c0-5,1.38-5.95,6.07-5.86,16.66.31,33.32.28,50,0,4.2-.07,5.21,1.1,5.2,5.21-.12,89.31.33,178.63-.28,267.93C60.65,636.3,95.42,668,138.23,672.9c24.1,2.76,47.75,1,69.65-10.26,29-14.92,42.87-39.71,43-71.82q.44-135.22,0-270.43c0-5.39,1.55-6.46,6.56-6.36q24.23.48,48.48,0c4.81-.09,6.38.79,6.35,6.09-.25,47-.15,94-.15,141Z"/><path d="M2488.81,667.07h9.91q91.48,0,183-.09c4.06,0,5.32.89,5.22,5.13-.3,13.32-.23,26.66,0,40,.05,3.58-.67,4.82-4.6,4.82q-136-.18-272,0c-3.37,0-4.46-.64-4.61-4.27a32.33,32.33,0,0,1,4.65-17.92q67.83-120.22,135.36-240.6,23.85-42.43,47.73-84.85c.8-1.43,1.57-2.88,2.33-4.28-1.13-1.55-2.58-.89-3.78-.9q-90.48-.05-181,.06c-4,0-5.4-.72-5.3-5,.31-13.32.23-26.66,0-40-.05-3.68.59-5.09,4.8-5.08q132.48.21,265,0c3.46,0,4.4.87,4.54,4.4a32.28,32.28,0,0,1-4.6,17.91q-77.21,136.42-154.07,273C2510.73,628.36,2500,647.29,2488.81,667.07Z"/><path d="M971.89,515.15q0-97.74-.12-195.48c0-4.69,1.3-5.65,5.8-5.64q131.49.21,263,0c5,0,6,1.4,5.87,6.09-.34,12.82-.28,25.66,0,38.49.08,4.16-.63,5.61-5.32,5.59-67.49-.19-135-.09-202.48-.22-4.36,0-5.88.76-5.84,5.59q.36,50.24,0,100.49c0,4.72,1.51,5.28,5.6,5.26,48.49-.14,97,0,145.48-.2,4.23,0,5.21,1.18,5.12,5.24-.27,12.33-.3,24.67,0,37,.11,4.17-1.34,4.8-5,4.79-48.66-.11-97.32,0-146-.17-4.19,0-5.17,1.12-5.16,5.22.14,61.33,0,122.65.19,184,0,4.42-.87,5.9-5.63,5.81-16.49-.33-33-.4-49.49,0-5.37.14-6.06-1.64-6.05-6.37Q972,612.89,971.89,515.15Z"/><path d="M870.18,516q0,97.71.09,195.42c0,4.17-.69,5.66-5.33,5.57-17.15-.33-34.32-.22-51.48,0-3.5,0-4.44-.92-4.44-4.44q.13-196.92,0-393.84c0-3.34.69-4.62,4.35-4.58,17.32.19,34.65.23,52,0,4.09-.06,4.9,1.18,4.89,5Q870.09,417.5,870.18,516Z"/><path class="cls-2" d="M2653.93,1014.7c-5.11-11.65-9.74-22.22-14.38-32.79-2.34-5.33-4.41-10.81-7.16-15.92-2.34-4.33-1.78-7.1,1.83-10.6,3.24-3.14,4.71-3.46,7.81,0,12.47,14.08,25.09,28,38,41.68,3.55,3.75.93,5-1.15,7.35-3,3.29-3.93-.06-5.22-1.46-10-10.89-20-21.87-30-32.81a3.43,3.43,0,0,0-2.39-1.18q5.61,12.93,11.22,25.86c3.25,7.47,6.23,15.08,9.86,22.36,2,4-1.43,4.82-2.85,6.91-1.53,2.25-2.94,1-4.6.07q-20.32-11.19-40.71-22.24a8.07,8.07,0,0,0-4.48-1.25q8.41,9.23,16.82,18.46c5.27,5.78,10.37,11.74,15.91,17.25,3.82,3.8-.26,4.9-1.74,7-2.07,2.88-3.21.56-4.49-.83-13.14-14.37-26.2-28.81-39.47-43.05-2.33-2.5-1.89-3.87.21-6.05,6.26-6.5,6.2-6.6,14.06-2.27q19.23,10.59,38.44,21.23C2650.6,1013,2651.73,1013.57,2653.93,1014.7Z"/><path class="cls-3" d="M2379,1126.5c2.83,15.52,5.56,31.05,8.57,46.54.56,2.89.46,4.33-2.82,4.66-2.6.26-4.79,1.42-5.53-2.85-3.43-19.84-7.25-39.61-10.86-59.41-.23-1.28-1.38-3.35.87-3.74,3.18-.55,6.41-2.83,9.63.77,7.88,8.8,16.06,17.33,24.14,26,4.84,5.16,9.71,10.3,15.62,16.55-2.51-13.93-4.75-26.32-7-38.71a67.61,67.61,0,0,0-1.72-8.8c-1.14-3.54.19-4.35,3.46-5.05s4.26.13,4.83,3.33c3.42,19.16,7.09,38.27,10.51,57.43.31,1.73,2.45,4.63-.82,5.44-2.89.71-6,2.84-9.12-.63-11.78-12.91-23.84-25.56-35.78-38.32-1.12-1.19-2.12-2.48-3.18-3.73Z"/><path class="cls-2" d="M2033.69,80.43c6,13.65,11.76,27.43,18.21,40.87,2.16,4.5-.62,4.84-3.07,6.37-3.62,2.27-3.77-1-4.57-2.8-7.56-17-15.09-34.06-22.44-51.16-.7-1.64-3.65-3.81-.78-5.51s5.51-4.2,9.49-1.37c7.32,5.2,15,9.85,22.59,14.72s15.29,9.83,24.23,15.57L2062.6,63.64c-1.54-3.5-2.87-7.11-4.68-10.47-2-3.75,1.44-3.6,3-4.71,1.84-1.27,3.38-1.54,4.56,1.15q12,27.43,24.15,54.77c.58,1.32,1.14,2.72-.64,3.31-2.72.9-4.68,4.19-8.48,1.68C2066.4,100,2052,91,2037.75,81.81c-1.11-.71-2.24-1.38-3.37-2.07Z"/><path class="cls-3" d="M2225,35.83c.81,3.12-1.33,3-3.13,3.3-8.71,1.44-17.38,3.07-26.12,4.25-3.58.49-4.29,1.92-3.64,5.19.91,4.57,1.54,9.2,2,13.83.32,3,1.5,3.77,4.53,3.22,10.15-1.86,20.37-3.33,30.52-5.14,2.47-.44,3.85-.34,3.85,2.61,0,2.23,1.8,4.7-2.51,5.33-13.34,1.95-26.63,4.26-39.91,6.54-2.47.43-3.17-.52-3.51-2.75q-4.36-29.4-8.91-58.77c-.39-2.52.1-3.44,2.79-3.86,12.66-2,25.29-4.21,37.9-6.49,2.83-.51,4,.26,4.17,3.11.18,2.56.86,4.55-3.14,5.05-9.57,1.19-19,3.24-28.59,4.57-3.39.47-4.09,1.65-3.41,4.79a92.25,92.25,0,0,1,1.75,11.85c.25,3,1.29,3.9,4.38,3.32,8.51-1.6,17.16-2.52,25.59-4.43C2224.46,30.26,2225,32.48,2225,35.83Z"/><path class="cls-2" d="M2335.72,68.71c-14.58-.22-24.93-7.7-26.64-19.24-.76-5.16-.09-5.8,5-5.57,2.08.09,3,.77,3.08,2.88.68,11.8,17.59,17.13,27.25,12.15a9.69,9.69,0,0,0,5.67-8.75c.11-3.88-2-6.57-5.3-8.39-6.31-3.47-13.41-4.92-20-7.79-11.56-5.06-15.4-16.34-8.79-26.06,3.37-5,8.44-6.79,14-7.57,13.3-1.85,24.82,4.43,27.49,15.2.49,2,2.6,5.17-1.18,6.11-3,.75-6.4,1.59-7-3.84s-5-7.94-10-9.09c-5.74-1.31-11.4-1.46-15.94,3a7.76,7.76,0,0,0,2.44,12.88c6.81,3.05,14,5.21,20.88,8.17,6.68,2.88,11.21,7.69,11.47,15.51C2358.58,60.54,2349.39,68.92,2335.72,68.71Z"/><path class="cls-3" d="M2461.29,1096.63c-10.17,3.92-19.6,7.55-29,11.17-1.86.71-4,2.52-4.94-1.09-.7-2.69-2.72-5.12,2.17-6.76,11.33-3.81,22.36-8.52,33.58-12.69,1.86-.69,4.33-3,5.77-1.21a9.17,9.17,0,0,1,2,8.86c-3.57,10.71-7.06,21.46-10.56,32.2-3,9.11-5.93,18.24-9.17,28.22,11.63-4.48,22.62-8.5,33.43-13,3.9-1.61,5.33-.85,6.45,3.12.91,3.25-.93,3.68-3,4.46-12.73,4.88-25.45,9.8-38.22,14.57-1.84.69-4.32,3.15-5.68,1.09-1.57-2.39-3.29-5.3-2.13-8.79,3.3-9.94,6.39-19.95,9.58-29.92C2454.71,1117.08,2457.87,1107.3,2461.29,1096.63Z"/><path class="cls-2" d="M1965.74,103.75l19.43,32.69c.6,1,1.21,2,1.85,3q11,16.61,25.55,2.71c4.55-4.34,6-9.31,3.58-15.37-4.07-10.1-10.56-18.84-15.77-28.3-1.84-3.35-3.7-6.71-5.85-9.87-1.61-2.36-1-3.33,1.2-4.95,3.36-2.48,5-2,7.08,1.59,5.93,10.6,12.35,20.92,18.3,31.51,10.11,18,.87,36.68-19.64,40a17.22,17.22,0,0,1-15.18-4.59c-4-3.66-6.77-8.18-9.49-12.77-5.17-8.73-10.18-17.57-15.6-26.15-2.31-3.66-2.71-6.1,1.83-7.85A18.22,18.22,0,0,0,1965.74,103.75Z"/><path class="cls-2" d="M2236.21,1142.51c-8-2.38-15.6-4.29-22.93-7-4-1.46-5.34-.81-6.25,3.3-1.61,7.31-3.88,14.46-5.7,21.72-.57,2.26-1.56,3.47-3.69,2.18-1.84-1.12-6.18.37-4.89-4.36,5.43-19.9,10.88-39.79,16.18-59.73.68-2.56,1.74-2.66,3.88-2,11.75,3.67,23.48,7.38,35.31,10.75,3.81,1.09,2.74,3,2.18,5.55-.65,3-1.8,3.24-4.49,2.36-8.53-2.79-17.2-5.18-25.74-7.95-2.92-.95-4.5-.94-5.19,2.64a134.27,134.27,0,0,1-3.54,13c-.71,2.37-.24,3.48,2.41,4.21,7.7,2.11,15.27,4.66,22.93,6.92,2,.58,3,1.4,2,3.44C2237.81,1139.26,2238.83,1142.13,2236.21,1142.51Z"/><path class="cls-2" d="M2149,77.51c1.38-19.7,2.68-38.28,4-56.86.25-3.53,3.81-6.62,7.1-6,2.55.46,1.12,2.46,1,3.6-1.09,14.1-2.33,28.18-3.54,42.27-.59,7-1.49,13.91-1.65,20.88-.1,4.26-3.19,3.79-5.58,4.92-2.58,1.22-3.85.22-5.29-1.81-11.83-16.67-23.78-33.27-35.59-50-.83-1.17-3.8-3-1.39-4.1s5.88-4.45,8.76-.36c3.93,5.57,7.68,11.27,11.5,16.91Z"/><path class="cls-2" d="M2745.43,242.91c5.57,7.56,5.54,7.54.71,14.22-9.93,13.74-19.81,27.5-30.26,42,7.17-1.67,13.63-3.15,20.08-4.67,10.84-2.56,21.67-5.16,32.52-7.71,3-.71,7.88,3.09,7.78,6-.05,1.5-1.28,1.24-2.16,1.43-20.14,4.38-40.31,8.68-60.42,13.19-2.86.64-3.46-1.15-4.47-2.79-1.44-2.32-3.33-4.19-1-7.48,8-11.07,15.51-22.42,23.21-33.67C2736,256.73,2740.6,250,2745.43,242.91Z"/><path class="cls-2" d="M2673.44,906.64c2.7-7,6.73-9.71,14-8.46,7.67,1.33,15.57,1.23,23.34,2,3.3.34,3.55-.52,2.5-3.39-2.92-7.95-5.09-16.21-8.47-23.94-2.74-6.26-1.86-10.94,3.81-15.55,1.52,4.74,3,9.32,4.47,13.93,2.68,8.56,5.42,17.1,8,25.7a14.2,14.2,0,0,0,5.39,8c5.36,3.93,10.34,8.36,15.62,12.39,4.28,3.27-.51,4.63-1.3,6.74-1.09,2.93-2.78,1.88-4.42.28-.83-.81-2-1.32-2.73-2.17-10.19-11.26-23-15.13-37.89-14.4C2688.44,908.14,2681.15,907.08,2673.44,906.64Z"/><path class="cls-2" d="M2531,1057.74c-1.84,1.17-3.67,2.3-5.48,3.48-2.51,1.64-5,3.33-7.48,5-4,2.61-6.3,1.64-7.71-2.9-.6-1.94.78-2.3,1.8-3,12.77-8.43,25.56-16.81,38.31-25.28,1.64-1.09,3-1.78,3.74.65.63,2,4.22,3.82.61,6.23-4.15,2.77-8.23,5.67-12.55,8.16-2.65,1.53-2.86,2.74-1.29,5.35,8.77,14.52,17.16,29.27,26.09,43.68,2.52,4.07,0,4.81-2.37,6.7-3.3,2.64-4.15.17-5.42-2q-12.67-21.48-25.41-42.93C2533.12,1059.73,2532.9,1058,2531,1057.74Z"/><path class="cls-4" d="M2733.74,227.3a5.63,5.63,0,0,1-2.38,3q-21.43,18.3-42.86,36.59c-1.32,1.12-2.85,3.66-4.54.43-1.16-2.2-5.31-3.75-1.21-7.21,14.63-12.31,29.08-24.82,43.63-37.22.78-.67,1.68-2.22,2.88-1A63.13,63.13,0,0,1,2733.74,227.3Z"/><path class="cls-2" d="M2092.45,33.82c1.7-.11,1.68,1.34,2,2.35,6.59,19,13.11,38,19.78,57,1.43,4.07-2.07,3.25-3.73,4.19-1.85,1-3.47,1.65-4.49-1.38-6.39-18.89-13-37.71-19.42-56.57C2085.74,36.85,2089.17,33.65,2092.45,33.82Z"/><path class="cls-2" d="M2374,70.74c2.8-17,5.62-34.22,8.46-51.43.35-2.13,1.14-4.25,1.11-6.36-.06-5.08,2.83-4.4,6.18-3.7,2.24.47,2.89,1.23,2.47,3.64q-5.08,29.45-9.84,58.95c-.36,2.19-1,3.72-3.34,2.6C2377.24,73.58,2373.35,75.41,2374,70.74Z"/><path d="M1613.44,716.83c-23.32,0-45.31-.06-67.29.07-3,0-3.91-2-5.18-3.9q-40.92-59.74-81.83-119.48-15.8-23.07-31.57-46.16c-1.35-2-2.53-3.49-5.43-3.46-18.34.19-36.63-1.07-54.91-2.22-4.66-.29-6.13.41-6.11,5.54.22,54.66.08,109.33.23,164,0,4.47-1,5.83-5.65,5.74-16.83-.32-33.66-.28-50.49,0-4.22.06-5.16-1.18-5.16-5.25q.18-123.49.09-247c0-48.5.06-97-.1-145.49,0-4.3.91-5.4,5.4-5.54,40.78-1.25,81.5-4.95,122.34-3.53,27.41.95,54.45,4.58,80,15.38,42,17.76,63,51,64.15,96.86,1.41,54.54-42.54,99.84-84.37,108.72-.63.13-1.23.42-2.55.88ZM1361.29,479.48c0,4.93-2.19,11.51,1,14.34s9.45,1.87,14.4,2.22c27.68,2,55.3,2.18,82.42-4.9,16.18-4.22,30.62-11.27,39.44-26.57,7-12.09,8.85-25.4,9-39,.18-15.25-3.18-29.42-14.41-40.77-10.78-10.9-24.54-15.72-39-18.85-29.79-6.45-59.83-6.46-90-3-3.38.39-2.95,2.35-2.94,4.5q0,30.75,0,61.5C1361.24,445.81,1361.16,462.64,1361.29,479.48Z"/><path d="M1944.79,716.83c-9.5,0-19-.2-28.49.09-3.64.11-5.17-1.18-6.35-4.48-9.16-25.69-18.56-51.3-27.73-77-.93-2.61-2-3.61-4.87-3.61q-79.48.14-159-.05c-3.52,0-4.08,1.89-5,4.23-9.77,25.29-19.65,50.55-29.25,75.9-1.39,3.68-3,5.06-7.05,5-19-.25-38-.11-57-.11-6,0-6,0-3.6-5.45q26-58.63,52-117.25,60.83-137.35,121.44-274.8c3.56-8.11,7.39-12.18,16.56-10.84,3.63.53,5.37,1.36,6.78,4.81q61.76,150.78,123.76,301.46,19.35,47.08,38.78,94.13c3.28,8,3.3,7.95-5.54,7.94ZM1799,418.13q-32.9,84.09-65.92,168.14c-1.76,4.45-.8,5.05,3.56,5,40.48-.14,81-.08,121.45-.08,5.41,0,5.42,0,3.5-5.36L1818,464.22q-8.64-24.08-17.26-48.17C1799.47,416.52,1799.34,417.35,1799,418.13Z"/><path class="cls-3" d="M2287,1150.92c9.75,9.33,12.19,21.81,18.24,32.63-9.48.69-10,.33-13.65-7.33-3.07-6.44-5.56-13.18-9.33-19.28-3.4-5.5-13.36-9.69-19.55-8.39-2,.41-1.57,1.81-1.72,3-1,7.76-2.12,15.5-2.73,23.28-.3,3.89-2.51,3.16-4.76,2.8s-4.62.09-4.12-3.81c2.58-20.29,4.91-40.6,7.23-60.92.25-2.2.66-3.36,3.25-3,10.69,1.54,21.45,2.57,32.09,4.57,15,2.81,17.1,20.43,10.47,29.16C2298.65,1148.63,2293.27,1149.91,2287,1150.92Zm9.92-17.26c.82-5.75-2.42-10.42-9.36-11.94-6.61-1.45-13.43-1.92-20.14-3-2.48-.4-2.78,1-3,2.77-.66,5.43-1.29,10.86-2,16.29-.23,1.78.13,2.77,2.17,3,6.59.7,13.17,1.55,18.62,2.21C2291.6,1143.09,2296.06,1139.77,2296.93,1133.66Z"/><path class="cls-3" d="M2680,217.15c1.21,12.9-3.45,24.19-6,36.32-5.18-4-8.42-7.69-5.86-14.48,2-5.4,2.41-11.4,4.18-16.92,3.26-10.15-3-16.29-8.85-22.7-1.69-1.85-2.64,0-3.61.9-5.12,5-10.23,10-15.26,15.1-1.56,1.58-3,3-4.55.26-1.12-2-5.47-2.86-1.66-6.53,13.76-13.3,27.28-26.85,40.92-40.28,1.15-1.13,2.12-3.27,4.23-.71,7.31,8.84,15.76,16.73,22.27,26.22,5.09,7.41,4.36,15.63-1.35,22-5.55,6.22-13,7.46-20.27,3.35C2682.92,219,2681.7,218.19,2680,217.15Zm19.32-9a9.6,9.6,0,0,0-.79-11.24c-4.59-5.88-9.67-11.38-14.46-17.11-1.42-1.7-2.38-1-3.59.19-3.63,3.65-7.24,7.33-11,10.82-1.73,1.59-1.28,2.55.08,4,4.16,4.52,8.11,9.23,12.28,13.75,2.4,2.6,5.27,4.58,9.25,4.83A10.22,10.22,0,0,0,2699.31,208.17Z"/><path class="cls-3" d="M2280.68,35.81c6.92,4.9,18.54,20.59,21.75,28.93-8.92,1.71-8.91,1.7-13.65-5.44-3.31-5-6.56-10-10-14.89a19,19,0,0,0-21.24-7c-2.27.7-1.58,2.23-1.54,3.55.19,7.48.26,15,.82,22.44.34,4.48-2.68,3.07-4.84,3.44-2.67.46-3.75-.3-3.84-3.35-.52-19.46-1.23-38.92-2-58.38-.12-3,.41-4.45,3.94-4.39,10.15.16,20.26-1.09,30.43-.67,15.79.65,19.53,18.83,13.3,27.91C2290.76,32.37,2286.33,34.4,2280.68,35.81ZM2257.62,8c-1.73,0-2.84.25-2.74,2.4.26,5.65.39,11.3.55,17,0,1.33.49,2.35,2,2.25,7.77-.53,15.69.46,23.31-1.65a10.13,10.13,0,0,0,7.13-10.76,10.12,10.12,0,0,0-8.33-9.28c-4-.86-8,0-11.95.11C2264.27,8,2260.94,8,2257.62,8Z"/><path class="cls-2" d="M2754.4,879.26c-18.6-.19-35.75-17.4-35.47-35.6.27-17.56,14.3-32.4,30.37-32.1,18.71.34,36,17.52,35.7,35.49S2771,879.43,2754.4,879.26Zm-9.09-11.5c4.1,2.26,8.6,3.54,13.44,2.72,16.06-2.73,23.79-22.72,13.88-35.9a38.77,38.77,0,0,0-12.94-10.74c-15.71-8.47-32.5,1.44-32.71,22.52C2727.28,855.65,2735.52,862.35,2745.3,867.75Z"/><path class="cls-2" d="M2581,101.36c-1.49,12.38-7.05,24-18.14,32.37-8.71,6.59-17.86,5-26.7-.05-6.2-3.56-12.16-7.55-18.37-11.08-2.64-1.5-2.9-2.74-1.44-5.38,9.42-17,18.68-34.13,28-51.23.85-1.57,1.36-2.87,3.63-1.43,7.72,4.9,15.85,9.17,23.19,14.67C2578,84.4,2580.91,91.56,2581,101.36Zm-15.76-16.58c-4.3-2.82-8.76-5.4-13-8.36-2.35-1.66-3.29-.87-4.44,1.27q-10.26,19.06-20.69,38c-.77,1.42-1.47,2.56.51,3.64,5.52,3,10.55,6.92,16.47,9.23,3.93,1.54,7.89,1.6,11.48-.75,10.3-6.73,15-16.87,16.89-27C2572.32,93.27,2570.39,88.18,2565.19,84.77Z"/><path class="cls-3" d="M2786.6,431.38c-10-.11-17.44-3.89-22-12.62-4.71-9-7-19-10.62-28.46-.81-2.11.57-2.6,2-3.15,17.7-6.79,35.42-13.54,53.08-20.43,2.32-.9,3.21-.42,4,1.85,2.38,7.27,5.1,14.42,7.38,21.71,5.26,16.84-.4,29.36-16.42,36.72A44.64,44.64,0,0,1,2786.6,431.38Zm19.38-16c7.08-4.64,10.1-12.09,7.94-20.23-1.4-5.28-3.38-10.41-5.08-15.61-.61-1.87-1.45-2.6-3.6-1.76-13.13,5.14-26.31,10.16-39.5,15.17-1.72.65-2.32,1.47-1.62,3.31,2.12,5.58,3.83,11.33,6.25,16.78,2.83,6.39,8.11,9.42,16.67,9.23A41.78,41.78,0,0,0,2806,415.43Z"/><path class="cls-3" d="M2429.06,85.08c-10.2-.72-19.72-4.53-29.61-6.68-2.2-.48-1.75-2-1.4-3.48,4.57-19.43,9.18-38.85,13.66-58.3.54-2.33,1.25-3,3.67-2.27,7.18,2.09,14.49,3.73,21.65,5.88,13.17,4,19.94,12.88,19.67,26.63-.19,9.74-2.37,19.17-8,27.39C2444,81.07,2437.87,85.53,2429.06,85.08Zm5.22-57.32c-4.12-1.28-8.33-2.24-12.47-3.47-1.86-.55-3.08-.64-3.62,1.75q-4.93,21.61-10.08,43.17c-.54,2.27,0,3.3,2.35,3.82,5,1.08,10,2.64,15,3.64,6.31,1.26,11.44-.93,15.2-6.17,5.12-7.14,6.69-15.4,7.41-22.47C2448.09,36.84,2443.63,30.66,2434.27,27.75Z"/><path class="cls-3" d="M2337.29,1114.74c2.48-.41,4.4.12,5.74,3.35,8.06,19.52,16.44,38.91,24.55,58.42.6,1.44,3.22,4.26.46,4.78s-7.06,3-9.11-1.72-4-9.49-5.7-14.37c-1-2.93-2.55-3.69-5.53-3.47-6.47.49-13,.7-19.45.76-2.44,0-3.54.82-4.14,3.16-1.12,4.35-2.55,8.61-3.84,12.91-1.37,4.57-4.06,6.08-8.69,5.08-2.79-.6-1.24-2.18-.86-3.36,4-12.35,8-24.69,12-37q3.76-11.62,7.5-23.26C2331.81,1115,2331.79,1115,2337.29,1114.74Zm-8.81,36.64c-.91,2.85-.6,3.87,2.66,3.59,4.8-.42,9.64-.61,14.46-.59,2.94,0,2.9-1.14,2-3.3-3.56-8.92-7.05-17.86-11-28C2334.57,1133.47,2331.34,1142.37,2328.48,1151.38Z"/><path class="cls-2" d="M2688.69,992.4c-10.81-20.69-21.35-41-32.09-61.25-2.06-3.89,1.81-4.76,2.88-7,.89-1.89,2.28-2.75,4.83-1.87,19.81,6.85,39.67,13.51,59.55,20.17,2.82.94,3.51,1.44,1.45,4.54-2.91,4.37-5.81,5.17-10.11,2.74a11.9,11.9,0,0,0-1.88-.67c-11.78-4.21-11.79-4.22-19.67,5.78-3,3.78-7.49,7.35-8.28,11.58-.76,4,3.67,8.17,5.85,12.24C2695,985.69,2695.06,985.65,2688.69,992.4Zm4.07-48.31c1.09-1.35,1.3-2.24-.55-2.92l-27.84-10.35c6.66,9.45,10.81,19,16.31,28.51C2685,953.92,2688.81,949,2692.76,944.09Z"/><path class="cls-3" d="M2584.15,1090.87q-6.22-23-12.4-45.83c-1.87-6.9-3.6-13.85-5.73-20.68-1.32-4.25,2.33-4.85,4.23-6.8,1.54-1.59,2.83-2.12,5.09-.67,18.75,12,37.62,23.86,57,36.1-2.15,1.77-4.06,3.21-5.82,4.82-1.53,1.4-2.79,1.16-4.38,0-4.22-3-8.62-5.68-12.81-8.68-1.82-1.3-3.07-1.16-4.74.22q-8.27,6.85-16.75,13.45c-1.71,1.33-2.2,2.59-1.49,4.67,1.17,3.46,2,7,3.09,10.52C2591.89,1086.12,2591.91,1086.12,2584.15,1090.87Zm-10.78-65.74c4.83,10.92,6.43,21.41,10.2,31.68l16.79-13.38Z"/><path class="cls-3" d="M2661.22,154.92a20.37,20.37,0,0,1-10.29,17.16c-6.7,4.08-13,2.54-19.1-1.55a88.92,88.92,0,0,1-13.37-11.18c-3.38-3.38-5.15-2.46-7.49,1-3.27,4.8-7,9.28-10.48,13.94-1.18,1.58-2.41,3.24-4.05.79-1.25-1.86-6.11-2-2.84-6.22,11.9-15.37,23.64-30.87,35.48-46.29.88-1.14,1.55-3.3,3.74-1.26,7.89,7.36,16.89,13.49,24,21.67A17.52,17.52,0,0,1,2661.22,154.92Zm-11.59-8.47c-4.9-4.48-10-8.73-14.91-13.22-1.74-1.6-2.44-.66-3.43.66-3.48,4.65-7,9.31-10.56,13.87-1.15,1.46-1.33,2.34.27,3.63,4.79,3.84,9.35,8,14.21,11.73,3.14,2.42,6.79,3.78,10.65,1.46a13.37,13.37,0,0,0,6.81-10.75C2652.5,150.87,2651.65,148.3,2649.62,146.45Z"/><path class="cls-2" d="M2509,79.66c0,10.16.1,20.33-.1,30.49,0,1.52,1.57,5.09-1.49,4.47-2.63-.53-7.19-.59-7.25-5.27-.07-5.16,0-10.33.31-15.48.16-2.58-.59-3.88-3-4.85-6.18-2.45-12.28-5.12-18.34-7.88-2-.91-3.2-.75-4.62,1.07-3.07,3.94-6.38,7.68-9.65,11.45-1.41,1.63-8.81.5-9.46-1.42-.34-1,.56-1.47,1.08-2.05,14-15.85,28-31.66,42-47.57,1.53-1.75,2.78-2.09,4.63-.85,2.22,1.49,6,.82,5.86,5.4-.28,10.82-.09,21.65-.09,32.48Zm-25.49-8.12c-1.76,2-2,3,.83,4.05,4.49,1.68,8.87,3.67,13.24,5.66,2.26,1,3.25.87,3.22-2-.11-9.38,0-18.77,0-28.62C2495.56,58.33,2489.37,64.8,2483.53,71.55Z"/><path class="cls-2" d="M2748.54,381.17a4.49,4.49,0,0,1-.66-.73c-4.22-7.45-4.77-8.06,1.48-13.74,7.56-6.86,8.73-13.45,2.63-21.57a19.19,19.19,0,0,1-3-6.27c-1.6-5.76-5.08-7.34-10.66-5.82-3,.82-6.26.91-9.35,1.52-2.08.41-3.28,0-4.34-2-3.14-6.16-3.25-6.08,3.71-6.85q27.8-3.06,55.6-6.14c2-.22,4.45-1.58,5.41,1.59s4.47,5.57.92,9.75c-12.91,15.24-25.37,30.85-38,46.29C2751.07,378.57,2750.33,380.36,2748.54,381.17Zm7.47-50.35c-2.76.26-2.49,1.48-1.67,3.18,2.65,5.49,5.35,11,8.23,16.84L2783.29,327A248.86,248.86,0,0,1,2756,330.82Z"/><path class="cls-2" d="M2788.28,504.46c-2.7-9.22-2.7-9.22,4.71-14.59,9.64-7,9.63-7,6.6-18.69-.58-2.25-1.1-4.52-1.62-6.79-1.9-8.38-1.9-8.38-10.73-9.23-2.82-.27-5.62-.66-8.44-.88a3.19,3.19,0,0,1-3.26-2.35c-2.4-6.6-2-7.2,5-6.29,18.81,2.46,37.61,5,56.43,7.35,2.5.32,4.19,1.08,4.23,3.8s3,5.24-.66,8c-17.11,13-34,26.18-51,39.29A4.4,4.4,0,0,1,2788.28,504.46Zm20.17-26,25.47-18.47c-11.06-.07-20.47-1.89-30.51-3Z"/></g></g></svg>